# xmcd CD database file
#
# Track frame offsets:
#	150
#	15125
#	47270
#	63387
#	90767
#	120812
#	145812
#	177875
#	221310
#	257150
#	313927
#
# Disc length: 4627 seconds
#
# Revision: 0
# Processed by: cddbd v1.5PL3 Copyright (c) Steve Scherf et al.
# Submitted via: CDex 1.51
#
DISCID=7d12110b
DTITLE=The Roy Haynes Trio - The Roy Haynes Trio Featuring Danilo Perez and John Patitucci 
DYEAR=1999
DGENRE=Jazz
TTITLE0=Wail
TTITLE1=Question And Answer
TTITLE2=Shulie A Bop
TTITLE3=Dear Old Stockholm
TTITLE4=It's Easy To Remember
TTITLE5=Folk Song
TTITLE6=Sippin' At Bell's
TTITLE7=Bright Mississippi
TTITLE8=Prelude To A Kiss
TTITLE9=Green Chimneys
TTITLE10=Solar
EXTD=YEAR: 1999
EXTT0=
EXTT1=
EXTT2=
EXTT3=
EXTT4=
EXTT5=
EXTT6=
EXTT7=
EXTT8=
EXTT9=
EXTT10=
PLAYORDER=
